<?xml version="1.0" encoding="UTF-8" standalone="no"?>
<!DOCTYPE svg PUBLIC "-//W3C//DTD SVG 20010904//EN"
              "http://www.w3.org/TR/2001/REC-SVG-20010904/DTD/svg10.dtd">

<svg xmlns="http://www.w3.org/2000/svg"
     width="4.72222in" height="7.36111in"
     viewBox="0 0 340 530">
  <path id="Full"
        fill="none" stroke="black" stroke-width="1"
        d="M 99.36,58.27
           C 77.29,63.20 50.91,41.53 58.64,28.82
             77.43,28.54 96.00,44.75 107.18,54.09M 70.64,63.00
           C 37.96,69.36 11.15,62.03 12.09,46.27
             22.68,37.12 66.81,56.50 73.36,61.27M 99.45,47.82
           C 170.43,17.31 246.22,42.59 280.75,79.00
             317.49,121.93 317.46,181.72 280.00,205.00
             258.97,223.29 232.13,195.18 178.36,206.88
             172.37,207.83 156.72,227.08 150.67,218.67
             142.46,208.99 161.89,191.56 162.27,191.91
             156.08,204.67 99.55,217.73 90.27,207.36
             87.34,207.19 82.34,233.70 68.27,230.27
             55.18,216.96 79.40,200.25 75.25,202.00
             22.28,183.29 20.89,92.98 79.91,56.27M 282.25,82.63
           C 308.74,67.13 333.73,106.62 305.25,124.50M 278.88,205.63
           C 294.00,205.24 293.88,225.75 292.00,228.50
             282.13,228.38 274.00,212.13 261.63,212.63M 123.55,152.64
           C 126.54,149.73 137.05,152.90 130.64,159.18
             126.88,163.78 119.49,158.05 123.55,152.64 Z
           M 49.18,172.27
           C 52.39,170.71 59.12,176.29 53.55,179.00
             48.02,182.54 46.58,173.94 49.18,172.27 Z
           M 73.00,167.18
           C 78.25,174.00 82.31,176.88 78.45,182.09
             81.25,176.44 82.00,177.69 90.64,178.09M 216.67,361.33
           C 336.69,355.54 333.57,261.38 267.50,216.50
             110.32,160.42 -5.57,229.08 64.38,343.88
             83.38,375.13 178.00,356.67 216.67,361.33 Z
           M 65.63,341.88
           C 64.83,340.61 42.80,355.58 47.00,362.25
             49.29,367.15 85.61,358.44 85.00,357.13M 180.75,353.88
           C 180.45,354.27 206.58,384.89 213.63,378.38
             222.74,375.66 215.53,358.33 204.63,350.88M 229.91,206.45
           C 216.22,196.45 205.00,150.82 215.18,143.00
             229.73,136.45 234.40,187.07 232.82,207.00M 259.00,214.82
           C 247.52,204.38 240.27,154.27 249.18,153.91
             264.45,149.00 272.09,194.46 270.27,216.27M 48.63,246.75
           C 32.61,233.94 38.38,209.96 75.00,219.50M 52.88,238.25M 296.88,332.88
           C 328.75,331.38 332.38,360.00 269.13,350.63M 197.73,259.36
           C 190.63,254.24 198.05,248.43 201.36,250.82
             205.69,251.73 207.01,261.31 197.73,259.36 Z
           M 287.91,266.45
           C 286.80,261.69 294.32,258.13 296.09,265.73
             297.14,270.36 289.36,272.84 287.91,266.45 Z
           M 249.18,250.45
           C 249.75,267.88 247.44,255.63 256.45,269.55
             250.44,259.81 249.50,258.94 238.82,269.00M 57.00,474.67
           C 57.00,474.67 39.00,454.67 38.67,430.67
             38.33,406.67 41.67,371.67 62.00,365.33
             87.97,348.57 139.33,353.33 160.33,351.67
             160.33,351.67 265.67,349.00 265.67,349.00
             283.53,351.82 303.00,369.67 314.00,392.33
             322.33,418.67 316.33,472.00 282.33,481.33
             259.15,495.57 254.67,497.00 215.33,500.00
             165.41,502.94 144.34,501.72 96.67,494.67
             78.98,488.57 68.68,485.81 57.00,474.67 Z
           M 106.27,389.36
           C 108.53,407.70 75.62,421.80 71.91,395.55
             64.92,373.94 98.78,365.15 106.27,389.36 Z
           M 70.27,483.18
           C 45.47,493.98 50.69,513.66 95.00,494.09M 121.55,495.55
           C 98.66,517.66 130.60,524.35 156.45,499.36M 254.27,495.18
           C 281.96,517.67 346.26,491.67 282.45,482.45M 274.82,352.45
           C 312.16,341.78 347.17,382.76 295.73,366.82" />
</svg>
